<svg width="28" height="22" viewBox="0 0 28 22" fill="none" xmlns="http://www.w3.org/2000/svg">
<path d="M18.13 12.93V13.93C18.13 14.5866 18.0007 15.2368 17.7494 15.8434C17.4981 16.4501 17.1298 17.0013 16.6655 17.4656C16.2013 17.9299 15.6501 18.2982 15.0434 18.5494C14.4368 18.8007 13.7866 18.93 13.13 18.93H9.87001C9.85459 19.4769 9.68991 20.0092 9.3938 20.4692C9.09769 20.9292 8.68141 21.2995 8.19001 21.54C7.78018 21.7448 7.32816 21.851 6.87001 21.85C6.19228 21.8541 5.53316 21.6285 5.00001 21.21L1.29001 18.3C0.928681 18.0196 0.636252 17.6603 0.435084 17.2495C0.233915 16.8387 0.129333 16.3874 0.129333 15.93C0.129333 15.4727 0.233915 15.0213 0.435084 14.6106C0.636252 14.1998 0.928681 13.8405 1.29001 13.56L5.00001 10.65C5.44701 10.2933 5.98666 10.0717 6.55539 10.0115C7.12411 9.95126 7.6982 10.0548 8.21001 10.31C8.89154 10.636 9.41641 11.2184 9.67001 11.93H17.1C17.2338 11.926 17.3671 11.9489 17.4919 11.9974C17.6167 12.0458 17.7305 12.1188 17.8266 12.2121C17.9227 12.3054 17.999 12.417 18.0511 12.5403C18.1032 12.6636 18.1301 12.7961 18.13 12.93Z" fill="#C6C6C6"/>
<path d="M27.87 6.07001C27.8701 6.52734 27.7656 6.97863 27.5645 7.3894C27.3635 7.80016 27.0712 8.15952 26.71 8.44001L23 11.35C22.4594 11.7701 21.7946 11.9987 21.11 12C20.6519 12.0009 20.1998 11.8948 19.79 11.69C19.1085 11.364 18.5836 10.7817 18.33 10.07H10.87C10.6048 10.07 10.3504 9.96466 10.1629 9.77712C9.97535 9.58959 9.87 9.33523 9.87 9.07001V8.07001C9.87 6.74393 10.3968 5.47216 11.3345 4.53448C12.2721 3.5968 13.5439 3.07001 14.87 3.07001H18.13C18.1422 2.51096 18.3103 1.96644 18.6156 1.4979C18.9208 1.02935 19.3508 0.655434 19.8573 0.418337C20.3637 0.181241 20.9263 0.0904046 21.4816 0.156079C22.0369 0.221754 22.5628 0.441325 23 0.790015L26.71 3.70001C27.0712 3.98051 27.3635 4.33987 27.5645 4.75063C27.7656 5.1614 27.8701 5.61269 27.87 6.07001Z" fill="#C6C6C6"/>
</svg>
